<?xml version="1.0" encoding="UTF-8"?>
<svg width="20px" height="20px" viewBox="0 0 20 20" version="1.1" xmlns="http://www.w3.org/2000/svg" xmlns:xlink="http://www.w3.org/1999/xlink">
    <!-- Generator: Sketch 54.1 (76490) - https://sketchapp.com -->
    <title>ArrowCircle</title>
    <desc>Created with Sketch.</desc>
    <g id="Page-1" stroke="none" stroke-width="1" fill="none" fill-rule="evenodd">
        <g id="Artboard" transform="translate(-781.000000, -630.000000)" fill="#124193" fill-rule="nonzero">
            <g id="ArrowCircle" transform="translate(781.000000, 630.000000)">
                <path d="M10.2148,12.7796 C10.0195,12.9749 10.0195,13.2914 10.2148,13.4867 C10.4101,13.682 10.7267,13.682 10.9219,13.4867 L10.2148,12.7796 Z M13.7503,9.95118 L14.1039,10.3047 C14.1976,10.211 14.2503,10.0838 14.2503,9.95118 C14.2503,9.81857 14.1976,9.69139 14.1039,9.59763 L13.7503,9.95118 Z M10.9219,6.41566 C10.7267,6.2204 10.4101,6.2204 10.2148,6.41566 C10.0195,6.61092 10.0195,6.9275 10.2148,7.12276 L10.9219,6.41566 Z M6.25,9.45117 C5.97386,9.45117 5.75,9.67503 5.75,9.95117 C5.75,10.2273 5.97386,10.4512 6.25,10.4512 L6.25,9.45117 Z M18.5,9.95117 C18.5,14.6456 14.6944,18.4512 10,18.4512 L10,19.4512 C15.2467,19.4512 19.5,15.1979 19.5,9.95117 L18.5,9.95117 Z M10,18.4512 C5.30558,18.4512 1.5,14.6456 1.5,9.95117 L0.5,9.95117 C0.5,15.1979 4.75329,19.4512 10,19.4512 L10,18.4512 Z M1.5,9.951172 C1.5,5.25675 5.30558,1.45117 10,1.451172 L10,0.451172 C4.75329,0.451172 0.5,4.70447 0.5,9.951172 L1.5,9.951172 Z M10,1.451172 C14.6944,1.45117 18.5,5.25675 18.5,9.951172 L19.5,9.951172 C19.5,4.70447 15.2467,0.451172 10,0.451172 L10,1.451172 Z M10.9219,13.4867 L14.1039,10.3047 L13.3968,9.59763 L10.2148,12.7796 L10.9219,13.4867 Z M14.1039,9.59763 L10.9219,6.41566 L10.2148,7.12276 L13.3968,10.3047 L14.1039,9.59763 Z M6.25,10.4512 L13.7503,10.4512 L13.7503,9.45117 L6.25,9.45117 L6.25,10.4512 Z" id="Shape"></path>
            </g>
        </g>
    </g>
</svg>