<?xml version="1.0" encoding="UTF-8"?>
<svg width="30px" height="28px" viewBox="0 0 30 28" version="1.1" xmlns="http://www.w3.org/2000/svg" xmlns:xlink="http://www.w3.org/1999/xlink">
    <!-- Generator: Sketch 54.1 (76490) - https://sketchapp.com -->
    <title>next</title>
    <desc>Created with Sketch.</desc>
    <g id="Page-1" stroke="none" stroke-width="1" fill="none" fill-rule="evenodd">
        <g id="Artboard" transform="translate(-93.000000, -500.000000)" fill="#000000" fill-rule="nonzero">
            <g id="next" transform="translate(93.000000, 500.000000)">
                <path d="M29.8162531,13.5469263 L17.3104543,1.05474527 C17.1317448,0.876931284 16.8655842,0.825565408 16.6294136,0.919491581 C16.3957616,1.0171748 16.2445233,1.24512188 16.2445233,1.49807681 L16.2445233,8.38597662 L0.624809634,8.38597662 C0.279925494,8.38603532 0,8.66652236 0,9.01217067 L0,19.030982 C0,19.3766304 0.279925494,19.6571761 0.624809634,19.6571761 L16.2445819,19.6571761 L16.2445819,26.5187766 C16.2445819,26.7717315 16.3970502,26.9996786 16.6307022,27.0973618 C16.7081957,27.1299424 16.7893793,27.1449706 16.8693916,27.1449706 C17.0318175,27.1449706 17.1917833,27.0811009 17.3117429,26.9621081 L29.8175417,14.4335894 C29.9349828,14.3158882 30,14.1568007 30,13.9902579 C29.9999414,13.823715 29.9336942,13.6646863 29.8162531,13.5469263 Z" id="Path"></path>
            </g>
        </g>
    </g>
</svg>