<svg width="22" height="20" viewBox="0 0 22 20" fill="none" xmlns="http://www.w3.org/2000/svg">
<path d="M17.9351 15.12H7.03065C6.86523 15.12 6.70506 15.062 6.57806 14.9562C6.45107 14.8504 6.36529 14.7034 6.3357 14.5409L3.97812 1.59381C3.94853 1.43131 3.86276 1.28433 3.73576 1.17851C3.60876 1.07268 3.44859 1.01471 3.28318 1.01471H1.68945M17.9351 15.12C16.9599 15.12 16.1693 15.9094 16.1693 16.8831C16.1693 17.8569 16.9599 18.6463 17.9351 18.6463C18.9104 18.6463 19.701 17.8569 19.701 16.8831C19.701 15.9094 18.9104 15.12 17.9351 15.12ZM4.51479 4.54103H19.9141C20.0176 4.54103 20.1198 4.56372 20.2135 4.6075C20.3072 4.65128 20.3901 4.71508 20.4564 4.79439C20.5227 4.8737 20.5708 4.96659 20.5971 5.06647C20.6235 5.16636 20.6276 5.27082 20.6091 5.37245L19.4533 11.7198C19.4237 11.8823 19.3379 12.0293 19.2109 12.1351C19.0839 12.241 18.9237 12.2989 18.7583 12.2989H5.92746M9.10597 16.8831C9.10597 17.8569 8.31537 18.6463 7.34013 18.6463C6.36489 18.6463 5.57429 17.8569 5.57429 16.8831C5.57429 15.9094 6.36489 15.12 7.34013 15.12C8.31537 15.12 9.10597 15.9094 9.10597 16.8831Z" stroke="white" stroke-width="2" stroke-linecap="round" stroke-linejoin="round"/>
</svg>
