<svg width="15" height="14" viewBox="0 0 15 14" fill="none" xmlns="http://www.w3.org/2000/svg">
<path d="M13.4415 8.653L14.2097 4.14566C14.2343 4.00131 14.2289 3.85297 14.1938 3.71111C14.1588 3.56926 14.0949 3.43735 14.0068 3.32472C13.9187 3.21209 13.8084 3.12148 13.6838 3.0593C13.5593 2.99712 13.4234 2.96488 13.2859 2.96488H3.44204L3.15543 1.28329C3.11618 1.05245 3.00219 0.843646 2.83334 0.693324C2.66449 0.543003 2.45151 0.460712 2.23158 0.460816H1.17225C1.04773 0.460816 0.928315 0.51358 0.840269 0.6075C0.752223 0.701421 0.702759 0.828804 0.702759 0.961628C0.702759 1.09445 0.752223 1.22184 0.840269 1.31576C0.928315 1.40968 1.04773 1.46244 1.17225 1.46244H2.23158L3.79862 10.6562C3.81264 10.7375 3.83604 10.8167 3.86829 10.8919C3.63387 11.1032 3.45962 11.3803 3.36528 11.6918C3.27094 12.0033 3.26028 12.3367 3.33451 12.6544C3.40873 12.972 3.56488 13.2611 3.78526 13.4889C4.00564 13.7168 4.28143 13.8742 4.58138 13.9434C4.88133 14.0125 5.19345 13.9907 5.48237 13.8804C5.77129 13.77 6.02546 13.5755 6.21606 13.319C6.40667 13.0624 6.52611 12.754 6.56083 12.4288C6.59555 12.1035 6.54417 11.7744 6.41251 11.4787H10.4862C10.3336 11.8218 10.2897 12.2085 10.3609 12.5806C10.4322 12.9527 10.6149 13.29 10.8814 13.5418C11.1479 13.7936 11.4839 13.9462 11.8388 13.9767C12.1936 14.0072 12.5482 13.9139 12.849 13.7109C13.1499 13.5078 13.3808 13.2061 13.507 12.851C13.6332 12.4958 13.6479 12.1066 13.5488 11.7419C13.4497 11.3771 13.2422 11.0565 12.9576 10.8284C12.6729 10.6003 12.3265 10.477 11.9705 10.4771H4.72247L4.55174 9.47544H12.5176C12.7376 9.47554 12.9505 9.39325 13.1194 9.24294C13.2882 9.09262 13.4022 8.88383 13.4415 8.653Z" fill="white"/>
</svg>
