<svg width="806" height="164" viewBox="0 0 806 164" fill="none" xmlns="http://www.w3.org/2000/svg">
<path fill-rule="evenodd" clip-rule="evenodd" d="M59.7276 75.9271C59.7276 71.3508 58.5481 67.4821 56.1892 64.2741C53.8304 61.0659 50.4807 59.462 46.093 59.462C35.1949 59.462 29.7223 68.1429 29.7223 85.5042C29.7223 93.4775 30.6187 99.8937 32.4113 104.753C34.2042 109.66 38.4032 112.113 45.0079 112.113C49.3483 112.113 52.7924 110.65 55.2928 107.725C57.7933 104.8 59.256 101.073 59.7276 96.544L84.9208 97.9123C83.8357 108.905 79.4483 117.633 71.8526 124.049C64.2568 130.418 54.8682 133.626 43.5926 133.626C30.0996 133.626 19.4845 129.333 11.7002 120.794C3.91571 112.254 0 101.168 0 87.4859C0 73.2378 4.01011 61.6793 12.0775 52.857C20.1449 44.0348 31.2321 39.647 45.244 39.647C52.1319 39.647 58.5011 41.1097 64.3512 43.9874C70.2484 46.8654 74.9661 50.9227 78.5517 56.2067C82.0902 61.4905 84.2604 67.6238 84.9208 74.5117L59.7276 75.9271Z" fill="#6E6F70"/>
<path fill-rule="evenodd" clip-rule="evenodd" d="M116.577 91.1658L116.294 95.4589C116.294 101.026 117.898 105.649 121.012 109.376C124.126 113.104 128.419 114.944 133.891 114.944C137.996 114.944 141.676 113.575 145.026 110.839C148.328 108.15 149.979 104.8 149.979 100.79L174.088 102.489C174.088 104.753 172.625 108.433 169.653 113.528C166.68 118.671 162.151 123.294 156.065 127.399C149.979 131.55 142.289 133.626 133.042 133.626C124.125 133.626 116.294 131.692 109.547 127.87C102.754 124.049 97.517 118.671 93.8373 111.688C90.1574 104.706 88.3174 96.7328 88.3174 87.7217C88.3174 78.7107 90.063 70.5489 93.5071 63.2834C96.9509 56.0179 101.999 50.2622 108.604 46.0162C115.209 41.7702 123.088 39.647 132.146 39.647C138.751 39.647 145.026 41.0623 151.065 43.846C157.056 46.6293 161.916 50.498 165.595 55.4989C171.634 64.1327 174.654 76.0215 174.654 91.1658H116.577ZM148.611 75.5968C147.903 62.9532 142.808 56.6314 133.325 56.6314C122.993 56.6314 117.332 62.9532 116.294 75.5968H148.611Z" fill="#6E6F70"/>
<path fill-rule="evenodd" clip-rule="evenodd" d="M218.01 67.6708C218.01 72.0112 219.331 75.4079 221.926 77.7669C224.521 80.0786 228.012 81.2581 232.399 81.2581C236.834 81.2581 240.561 80.0786 243.533 77.6725C246.506 75.2665 248.016 71.8697 248.016 67.3879C248.016 63.0475 246.506 59.7448 243.486 57.4802C240.514 55.2159 236.787 54.1308 232.399 54.1308C228.059 54.1308 224.568 55.31 221.973 57.669C219.331 60.028 218.01 63.3777 218.01 67.6708ZM228.153 131.975L214 131.409C210.226 132.918 208.338 135.372 208.338 138.721C208.338 142.26 210.509 144.76 214.849 146.128C219.331 147.213 225.842 147.78 234.381 147.78C250.799 147.78 259.008 144.854 259.008 139.004C259.008 135.324 255.8 133.249 249.384 132.777L228.153 131.975ZM218.859 94.5625C215.793 96.261 214.283 98.4312 214.283 101.12C214.283 104.706 215.982 107.065 219.378 108.15C221.077 108.527 227.634 109.093 238.957 109.895L250.233 110.414C260.282 110.933 268.444 112.82 274.624 116.076C280.852 119.378 283.918 125.511 283.918 134.475C283.918 145.798 277.596 154.007 264.953 159.055C256.979 162.31 245.845 163.915 231.55 163.915C219.284 163.915 208.433 162.593 198.997 159.999C189.561 157.357 184.844 151.601 184.844 142.684C184.844 138.438 186.354 134.9 189.42 132.069C192.439 129.238 196.214 127.304 200.743 126.266C193.006 122.87 189.137 117.538 189.137 110.131C189.137 104.989 190.741 100.884 193.996 97.8649C197.252 94.8454 201.639 92.2508 207.253 90.0333C196.45 86.0231 191.071 78.6633 191.071 67.9066C191.071 57.9049 195.27 50.6867 203.762 46.299C212.207 41.8645 221.879 39.6469 232.73 39.6469C241.411 39.6469 249.384 40.9679 256.79 43.61C257.593 36.7692 259.527 32.0985 262.499 29.5981C265.471 27.0503 270.331 25.7764 277.172 25.7764L284.484 26.6257V43.61C281.465 42.8552 279.2 42.4776 277.691 42.4776C274.954 42.4776 272.595 43.1854 270.614 44.5534C268.632 45.9687 267.5 47.9031 267.217 50.3565C271.935 55.9705 274.341 61.8206 274.341 67.954C274.341 74.606 272.265 80.0315 268.208 84.1832C264.15 88.3821 259.008 91.3542 252.875 93.0998C246.742 94.8454 240.373 95.6947 233.815 95.6947L218.859 94.5625Z" fill="#6E6F70"/>
<path fill-rule="evenodd" clip-rule="evenodd" d="M433.726 82.3337C433.726 104.988 426.824 123.907 412.94 139.009C399.136 154.193 381.029 161.744 358.619 161.744C343.435 161.744 330.2 158.171 318.995 151.026C307.79 143.881 299.264 134.218 293.418 121.877C287.572 109.616 284.648 95.8124 284.648 80.3848C284.648 65.0386 287.572 51.2353 293.337 39.1368C299.102 27.0385 307.627 17.4574 318.833 10.4743C330.038 3.4914 343.354 0 358.619 0C374.371 0 387.85 3.5725 399.217 10.7991C410.585 17.9444 419.111 27.7693 424.957 40.1113C430.803 52.5344 433.726 66.5815 433.726 82.3337V82.3337ZM333.367 76.0002C333.367 91.1029 334.828 104.257 337.751 115.381C340.674 126.505 347.657 132.026 358.7 132.026C376.564 132.026 385.495 115.462 385.495 82.3337C385.495 66.6626 383.871 53.8336 380.623 43.7652C377.051 34.4276 369.743 29.7181 358.7 29.7181C341.811 29.7181 333.367 45.1454 333.367 76.0002V76.0002Z" fill="#6E6F70"/>
<path fill-rule="evenodd" clip-rule="evenodd" d="M441.376 9.6416H467.418V131.928H441.376V9.6416Z" fill="#124193"/>
<path fill-rule="evenodd" clip-rule="evenodd" d="M476.76 62.0091V41.0619H492.659L494.876 14.4534L517.805 12.8022V41.0619H537.384V62.0091H517.805V97.9119C517.805 102.064 517.994 105.083 518.371 106.923C518.796 108.763 519.881 110.131 521.673 111.028C523.466 111.924 526.438 112.349 530.59 112.349L538.752 111.829V131.644L536.818 132.163C528.326 133.154 523.513 133.626 522.381 133.626C511.389 133.626 503.557 131.739 498.886 127.965C495.631 125.228 493.602 121.784 492.753 117.632C491.904 113.481 491.479 108.244 491.479 101.922V62.0091H476.76Z" fill="#124193"/>
<path fill-rule="evenodd" clip-rule="evenodd" d="M599.329 131.928C598.527 128.908 598.149 124.143 598.149 117.774C594.233 123.341 590.082 127.351 585.694 129.852C581.354 132.352 575.881 133.626 569.323 133.626C560.973 133.626 554.085 131.409 548.754 126.974C543.422 122.586 540.733 116.265 540.733 108.15C540.733 95.1287 547.527 86.1176 561.114 80.9753C566.351 79.0409 578.24 77.1539 596.781 75.3139V73.3322C596.781 67.4821 596.026 63.5193 594.469 61.4434C592.299 58.424 588.667 56.9616 583.713 56.9616C579.372 56.9616 575.692 58.0937 572.673 60.4527C569.654 62.7644 568.144 66.0197 568.144 70.2187L543.281 67.9541C544.649 57.8106 549.367 50.5451 557.482 46.205C565.596 41.8172 575.315 39.647 586.543 39.647C599.187 39.647 608.764 42.3833 615.134 47.8088C618.766 50.5924 621.125 54.0365 622.116 58.0467C623.154 62.1039 623.626 68.1429 623.626 76.1629V118.293C623.626 123.766 624.239 128.295 625.371 131.928H599.329ZM596.781 88.6181C589.044 89.4673 582.392 91.0241 576.777 93.2417C571.21 95.5063 568.427 99.5164 568.427 105.319C568.427 108.858 569.465 111.735 571.541 113.906C573.617 116.123 576.447 117.208 580.033 117.208C585.647 117.208 590.129 114.66 593.384 109.518C595.649 105.744 596.781 100.035 596.781 92.3451V88.6181Z" fill="#124193"/>
<path fill-rule="evenodd" clip-rule="evenodd" d="M670.426 41.3455V58.3296H670.992C674.39 45.8744 680.806 39.647 690.241 39.647L694.77 39.9302V66.2555C685.712 66.2555 679.721 69.0392 676.796 74.5591C673.823 80.0787 672.361 87.6744 672.361 97.3462V131.928H646.035V41.3455H670.426Z" fill="#124193"/>
<path fill-rule="evenodd" clip-rule="evenodd" d="M692.514 109.465C691.041 109.465 689.871 108.98 689.004 108.032C688.136 107.084 687.692 105.934 687.692 104.623C687.692 103.312 688.116 102.182 688.963 101.214C689.81 100.245 691.001 99.7812 692.514 99.7812C694.107 99.7812 695.298 100.245 696.125 101.214C696.952 102.162 697.376 103.291 697.376 104.623C697.376 105.934 696.952 107.084 696.105 108.032C695.257 108.98 694.067 109.465 692.514 109.465Z" fill="#124193"/>
<path fill-rule="evenodd" clip-rule="evenodd" d="M713.999 69.1574V77.0252H714.1C715.129 74.4227 716.723 72.3044 718.861 70.6501C720.999 69.0162 723.4 68.189 726.083 68.189C728.968 68.189 731.449 69.0564 733.487 70.8117C735.545 72.5465 736.856 74.8666 737.461 77.7514C738.571 74.8666 740.265 72.5465 742.545 70.8117C744.805 69.0564 747.427 68.189 750.433 68.189C752.491 68.189 754.447 68.7134 756.283 69.7626C758.119 70.8318 759.552 72.244 760.601 74.0193C761.872 76.1779 762.517 79.9704 762.517 85.3772V109.465H756.344V85.3772C756.344 81.7659 755.981 79.103 755.275 77.4084C753.621 74.5639 751.321 73.1517 748.355 73.1517C745.37 73.1517 742.827 74.6849 740.729 77.7514C739.701 79.2039 739.075 80.6161 738.813 82.0283C738.551 83.4403 738.43 85.3165 738.43 87.6971V109.465H732.256V83.9448C732.256 80.9792 731.813 78.7197 730.925 77.1462C729.331 74.4834 727.072 73.1517 724.167 73.1517C721.464 73.1517 719.042 74.5236 716.884 77.2673C715.27 79.2646 714.463 82.3308 714.463 86.4867V109.465H708.29V69.1574H713.999Z" fill="#124193"/>
<path fill-rule="evenodd" clip-rule="evenodd" d="M799.336 85.4984C799.336 82.1898 798.609 79.5672 797.157 77.6306C796.29 76.1781 795.039 75.0482 793.384 74.2415C791.75 73.4345 790.015 73.0308 788.2 73.0308C784.77 73.0308 782.067 74.7256 780.09 78.1148C778.476 80.7374 777.669 84.1871 777.669 88.5043C777.669 92.8416 778.436 96.6947 779.989 100.064C781.542 103.433 784.185 105.107 787.958 105.107C791.751 105.107 794.736 103.493 796.915 100.266C798.529 98.0262 799.336 95.2221 799.336 91.9135V85.4984ZM799.336 55.1167H805.509V109.465H799.8V102.303H799.699C797.076 107.568 792.88 110.191 787.11 110.191C781.986 110.191 777.871 107.932 774.764 103.392C772.263 99.7006 771.012 95.0203 771.012 89.3717C771.012 83.7231 772.444 78.7803 775.289 74.5439C778.133 70.3076 782.228 68.1892 787.615 68.1892C792.315 68.1892 796.229 70.3277 799.336 74.6046V55.1167Z" fill="#124193"/>
<path fill-rule="evenodd" clip-rule="evenodd" d="M358.841 8.59229C396.094 8.59229 426.294 40.3518 426.294 79.5291C426.294 118.706 396.094 150.466 358.841 150.466C321.588 150.466 291.388 118.706 291.388 79.5291C291.388 40.3518 321.588 8.59229 358.841 8.59229V8.59229Z" fill="white"/>
<path fill-rule="evenodd" clip-rule="evenodd" d="M322.055 74.054C322.101 75.9992 323.237 77.4005 324.712 78.5198C325.091 78.8076 325.491 79.062 325.888 79.3246C326.119 79.4769 326.352 79.6279 326.575 79.7909C326.612 79.8179 326.641 79.8381 326.669 79.8582C326.705 79.8922 326.747 79.9322 326.805 79.9851C327.774 80.8757 328.506 81.7176 328.542 83.1768C328.591 85.1761 328.218 87.1192 328 89.0984C327.561 93.0873 328.237 97.0734 331.719 99.4904C333.905 101.007 336.776 101.247 339.354 100.999C340.024 100.935 340.691 100.852 341.358 100.762C341.867 100.694 342.377 100.625 342.887 100.556C342.891 100.555 342.893 100.555 342.898 100.554C342.94 100.549 342.99 100.543 343.057 100.535C344.093 100.409 345.156 100.28 346.203 100.356C346.238 100.359 346.264 100.36 346.288 100.361C346.319 100.369 346.346 100.377 346.382 100.387C346.431 100.399 346.49 100.419 346.549 100.44C346.589 100.559 346.636 100.697 346.65 100.765C346.67 100.858 346.685 100.92 346.697 100.966C346.698 100.992 346.699 101.012 346.701 101.043C346.72 101.412 346.727 101.778 346.722 102.147C346.702 104.035 348.378 105.664 350.327 105.752C354.712 105.95 358.845 105.897 363.323 105.98C366.513 106.039 370.189 106.607 373.392 106.795C378.659 107.105 379.795 101.045 375.309 99.8434C371.456 98.8112 367.531 99.6683 363.629 99.71C360.201 99.7466 356.846 98.9063 353.449 98.6159C352.664 95.9886 350.887 93.7654 347.859 93.3485C346.116 93.1091 344.519 93.1317 342.777 93.3607C342.175 93.4401 341.573 93.5212 340.971 93.6033C340.841 93.6208 340.793 93.6283 340.785 93.6301C340.717 93.6381 340.625 93.6494 340.498 93.6645C339.744 93.7554 338.987 93.842 338.227 93.8632C337.773 93.8756 337.316 93.8837 336.863 93.8473C336.788 93.8403 336.742 93.8393 336.713 93.8403C336.663 93.8272 336.606 93.8128 336.534 93.795C336.402 93.7628 336.06 93.6302 335.91 93.5815C335.804 93.5126 335.701 93.4452 335.643 93.4132C335.555 93.3141 335.47 93.2183 335.421 93.1701C335.306 92.929 335.178 92.6505 335.196 92.7773C334.987 91.8505 335.036 90.6728 335.155 89.5923C335.475 86.6853 336.143 83.74 335.459 80.827C334.913 78.5052 333.53 76.1895 331.661 74.6795C331.062 74.1952 330.452 73.7277 329.816 73.295C332.107 69.9375 335.092 67.1342 337.124 63.5568C339.342 59.6533 340.839 55.4018 341.486 50.9592C342.186 46.1505 342.097 41.103 343.793 36.4898C344.933 33.3866 346.899 31.0178 349.268 29.5484C350 29.0945 350.751 28.6705 351.538 28.3182C351.817 28.1926 352.375 27.9694 353.113 27.7404C353.837 27.5151 354.568 27.3088 355.311 27.1518C355.687 27.0722 356.063 26.9928 356.441 26.9294C356.424 26.9321 357.233 26.8208 357.204 26.8159C363.744 26.1141 369.787 27.2056 375.93 29.7287C375.915 29.7271 376.789 30.1052 376.898 30.1562C377.237 30.314 377.575 30.472 377.909 30.6394C378.558 30.9649 379.203 31.2993 379.831 31.663C381.445 32.5972 383.001 33.6585 384.486 34.7864C387.093 36.7678 389.738 39.3427 391.394 41.8256C395.098 47.3822 395.926 53.5244 394.276 60.1355C392.467 67.381 388.747 73.9174 383.025 78.7501C377.591 83.3389 370.629 85.9249 363.51 86.2384C358.88 86.4421 358.86 93.653 363.51 93.4479C377.038 92.8524 389.555 85.638 396.433 73.8767C402.842 62.9157 405.077 48.3361 397.154 37.5215C388.684 25.9606 373.743 18.7249 359.369 19.4352C352.635 19.7678 345.449 21.9105 340.981 27.2801C338 30.8628 336.281 35.1193 335.592 39.7234C334.884 44.4566 334.885 49.3422 333.477 53.9466C332.357 57.6073 330.528 61.0391 328.131 64.0314C325.865 66.8604 321.961 70.0759 322.055 74.0538L322.055 74.054Z" fill="#124193"/>
<path fill-rule="evenodd" clip-rule="evenodd" d="M360.558 52.8891C360.521 52.4984 360.552 52.0909 360.664 51.6674C360.71 51.4936 360.758 51.2771 360.822 51.0619C360.822 51.0612 360.826 51.0663 360.825 51.0638C361.111 51.8853 361.116 52.0925 360.62 52.8081C360.602 52.8349 360.578 52.8621 360.558 52.8891H360.558ZM371.028 54.5492C371.096 53.8679 371.329 53.069 371.694 52.4879C371.935 53.3317 371.5 54.567 371.013 55.1297C371.006 54.9416 371.008 54.7496 371.028 54.5492ZM379.277 60.0646C379.779 59.4363 380.354 58.8668 381.031 58.376C381.637 57.9356 382.675 57.2065 383.374 56.9993C383.397 57.3845 383.333 57.8393 383.217 58.19C383.043 58.7129 382.657 59.11 381.962 59.4575C381.413 59.7315 380.426 59.9994 379.695 60.0473C379.559 60.0561 379.419 60.0612 379.277 60.0646V60.0646ZM347.714 54.4241C348.405 57.4145 350.861 58.8498 353.581 59.1794C354.685 62.7967 355.194 66.5445 355.22 70.337C355.244 73.8136 355.094 77.3104 354.652 80.7611C354.345 83.1644 354.021 86.7007 352.509 88.6181C350.957 90.5857 353.72 93.3894 355.29 91.3985C356.999 89.2314 357.69 86.4594 358.145 83.7807C358.702 80.5044 359.004 77.1824 359.107 73.8612C359.26 68.9721 359.109 63.694 357.674 58.8985C357.837 58.8569 357.999 58.813 358.159 58.7643C358.545 58.6462 358.931 58.5053 359.312 58.3449C359.466 58.4757 359.624 58.6028 359.791 58.7248C362.282 60.5463 366.055 61.0807 369.297 60.3201C370.395 61.4908 371.788 62.385 373.311 63.0007C372.791 64.3029 372.321 65.6248 371.834 66.9437C371.03 69.1162 370.195 71.2449 369.783 73.5376C368.974 78.0331 369.206 82.5365 369.218 87.0786C369.225 89.6143 373.158 89.6149 373.151 87.0786C373.145 84.8473 373.057 82.6153 373.089 80.384C373.122 78.0665 373.258 75.7475 373.806 73.487C374.35 71.2394 375.218 69.1294 375.998 66.9591C376.365 65.9388 376.723 64.9211 377.124 63.942C377.811 64.0138 378.497 64.037 379.171 64.0081C381.374 63.9136 383.755 63.3871 385.404 61.8159C387.169 60.1342 387.925 57.0787 386.818 54.8366C385.522 52.215 382.335 52.931 380.307 54.1448C378.079 55.4776 376.287 57.2042 374.99 59.4079C374.331 59.1812 373.705 58.8913 373.151 58.5358C374.978 57.0865 376.039 54.8933 375.549 51.9522C375.071 49.0801 371.729 46.703 369.276 49.2371C367.513 51.0584 366.615 54.2155 367.265 56.7585C366.975 56.7737 366.682 56.7741 366.388 56.7589C365.3 56.702 363.93 56.5547 362.847 56.0397C364.85 54.0717 365.758 51.3732 363.826 48.4791C361.638 45.2012 358.099 46.6497 357.063 49.9578C356.528 51.6665 356.53 53.4176 357.053 54.997C356.787 55.0772 356.516 55.146 356.244 55.2019C356.048 54.7998 355.841 54.4027 355.618 54.0129C354.602 52.2284 353.187 49.4171 350.988 48.9089C347.869 48.1887 347.213 52.2567 347.714 54.4241V54.4241Z" fill="#124193"/>
<path fill-rule="evenodd" clip-rule="evenodd" d="M349.729 114.577C348.404 114.754 347.094 114.295 346.706 112.99C346.384 111.909 347.094 110.371 348.422 110.194C357.999 108.913 367.557 110.945 376.929 112.618C379.412 113.062 379.069 115.941 377.255 116.804C377.187 116.879 377.129 116.977 377.03 117.024C370.815 119.972 366.663 120.401 361.926 122.108C357.483 123.708 352.831 125.026 348.959 127.69C347.882 128.432 346.217 127.854 345.596 126.874C344.863 125.716 345.406 124.502 346.479 123.765C353.024 119.26 359.387 117.997 370.432 116.045C363.609 114.789 356.586 113.661 349.729 114.577Z" fill="#124193"/>
<path fill-rule="evenodd" clip-rule="evenodd" d="M348.819 131.568C357.557 127.878 366.401 124.458 375.295 121.161C378.273 120.057 379.547 124.809 376.601 125.901C368.108 129.049 359.645 132.288 351.3 135.812C350.065 136.333 348.678 136.196 347.936 134.93C347.326 133.888 347.583 132.089 348.819 131.568Z" fill="#124193"/>
<path fill-rule="evenodd" clip-rule="evenodd" d="M356.286 137.13C360.644 135.717 365.192 134.222 369.396 132.63C371.36 131.887 372.098 132.215 373.483 134.415C375.976 138.377 370.889 142.887 367.645 144.66C362.565 147.437 356.9 146.047 354.164 140.829C353.291 139.165 353.255 138.114 356.286 137.13V137.13Z" fill="#124193"/>
</svg>
