<svg width="17" height="16" viewBox="0 0 17 16" fill="none" xmlns="http://www.w3.org/2000/svg">
<path d="M15.61 0H0.89C0.536 0 0.25 0.286 0.25 0.64V15.36C0.25 15.714 0.536 16 0.89 16H15.61C15.964 16 16.25 15.714 16.25 15.36V0.64C16.25 0.286 15.964 0 15.61 0ZM13.762 4.67H12.484C11.482 4.67 11.288 5.146 11.288 5.846V7.388H13.68L13.368 9.802H11.288V16H8.794V9.804H6.708V7.388H8.794V5.608C8.794 3.542 10.056 2.416 11.9 2.416C12.784 2.416 13.542 2.482 13.764 2.512V4.67H13.762Z" fill="#ACB5BD"/>
</svg>
