<svg width="27" height="24" viewBox="0 0 27 24" fill="none" xmlns="http://www.w3.org/2000/svg">
<path d="M13.7108 22.485C13.7108 22.485 2.22644 15.9981 2.22644 8.12104C2.22667 6.72881 2.70494 5.37964 3.57993 4.30289C4.45491 3.22615 5.6726 2.48831 7.02598 2.21481C8.37935 1.94132 9.78486 2.14905 11.0036 2.80269C12.2222 3.45633 13.1789 4.51553 13.7108 5.80021L13.7108 5.80022C14.2427 4.51554 15.1994 3.45633 16.4181 2.80269C17.6368 2.14905 19.0423 1.94132 20.3956 2.21481C21.749 2.48831 22.9667 3.22615 23.8417 4.30289C24.7167 5.37963 25.195 6.72881 25.1952 8.12104C25.1952 15.9981 13.7108 22.485 13.7108 22.485Z" stroke="#ACB5BD" stroke-width="2.8976" stroke-linecap="round" stroke-linejoin="round"/>
</svg>
