<svg width="24" height="21" viewBox="0 0 24 21" fill="none" xmlns="http://www.w3.org/2000/svg">
<path d="M12.0624 20.485C12.0624 20.485 0.437378 13.9981 0.437378 6.12104C0.437615 4.72881 0.921737 3.37964 1.80744 2.30289C2.69314 1.22615 3.92574 0.488311 5.29568 0.214814C6.66563 -0.0586837 8.08835 0.149046 9.32196 0.802686C10.5556 1.45633 11.5239 2.51553 12.0624 3.80021L12.0624 3.80022C12.6008 2.51554 13.5692 1.45633 14.8028 0.80269C16.0364 0.149049 17.4591 -0.0586827 18.8291 0.214814C20.199 0.48831 21.4316 1.22615 22.3173 2.30289C23.203 3.37963 23.6871 4.72881 23.6874 6.12104C23.6874 13.9981 12.0624 20.485 12.0624 20.485Z" fill="#124193"/>
</svg>
