<svg width="70" height="70" viewBox="0 0 70 70" fill="none" xmlns="http://www.w3.org/2000/svg">
<path d="M35 50.3125C43.4569 50.3125 50.3125 43.4569 50.3125 35C50.3125 26.5431 43.4569 19.6875 35 19.6875C26.5431 19.6875 19.6875 26.5431 19.6875 35C19.6875 43.4569 26.5431 50.3125 35 50.3125Z" stroke="#124193" stroke-width="4" stroke-linecap="round" stroke-linejoin="round"/>
<path d="M59.0641 32.8126L61.8825 28.5852C62.0661 28.3128 62.1876 28.0034 62.2382 27.6788C62.2888 27.3542 62.2673 27.0225 62.1753 26.7072C61.6436 24.9564 60.9428 23.2614 60.0829 21.6463C59.9254 21.3588 59.7064 21.1096 59.4414 20.9165C59.1765 20.7235 58.8722 20.5913 58.5502 20.5294L53.5633 19.5319L50.4698 16.4384L49.4723 11.4513C49.4104 11.1293 49.2782 10.825 49.0851 10.56C48.892 10.295 48.6428 10.076 48.3553 9.91846C46.7401 9.0587 45.0451 8.35806 43.2942 7.82643C42.9789 7.7344 42.6472 7.71293 42.3226 7.76352C41.9981 7.81412 41.6886 7.93556 41.4163 8.1192L37.1891 10.9373H32.8141L28.5869 8.1192C28.3146 7.93556 28.0051 7.81412 27.6806 7.76352C27.356 7.71293 27.0243 7.7344 26.7089 7.82643C24.9581 8.35806 23.2631 9.05869 21.648 9.91844C21.3604 10.076 21.1112 10.295 20.9181 10.56C20.725 10.825 20.5928 11.1293 20.5309 11.4513L19.5337 16.4381L16.4399 19.5319L11.453 20.5291C11.1311 20.591 10.8267 20.7232 10.5618 20.9163C10.2968 21.1094 10.0777 21.3586 9.92022 21.6461C9.06032 23.2613 8.35958 24.9563 7.82787 26.7072C7.73586 27.0225 7.71439 27.3542 7.765 27.6788C7.81561 28.0034 7.93705 28.3128 8.1207 28.5851L10.9388 32.8123V37.1873L8.12068 41.4145C7.93705 41.6869 7.81561 41.9963 7.76502 42.3208C7.71442 42.6454 7.73589 42.9771 7.82791 43.2924C8.35946 45.0433 9.0601 46.7383 9.91991 48.3536C10.0774 48.6411 10.2965 48.8903 10.5615 49.0833C10.8264 49.2764 11.1307 49.4086 11.4527 49.4705L16.4399 50.468L19.5334 53.5615L20.5307 58.5487C20.5925 58.8706 20.7247 59.175 20.9178 59.4399C21.1109 59.7049 21.3601 59.924 21.6476 60.0815C23.2627 60.9414 24.9577 61.642 26.7085 62.1736C27.0238 62.2656 27.3555 62.287 27.68 62.2364C28.0046 62.1858 28.314 62.0644 28.5863 61.8808L32.8138 59.0626H37.1888L41.4162 61.8809C41.6886 62.0646 41.998 62.186 42.3226 62.2366C42.6472 62.2872 42.9789 62.2658 43.2942 62.1737C45.045 61.6421 46.7399 60.9415 48.3551 60.0818C48.6426 59.9242 48.8918 59.7052 49.0848 59.4402C49.2779 59.1752 49.4101 58.8709 49.472 58.549L50.4695 53.5618L53.563 50.468L58.5501 49.4707C58.8721 49.4089 59.1764 49.2767 59.4414 49.0836C59.7064 48.8905 59.9254 48.6413 60.0829 48.3538C60.9428 46.7387 61.6436 45.0438 62.1753 43.293C62.2673 42.9777 62.2888 42.6459 62.2381 42.3214C62.1875 41.9968 62.0661 41.6874 61.8824 41.415L59.0641 37.1876V32.8126Z" stroke="#124193" stroke-width="4" stroke-linecap="round" stroke-linejoin="round"/>
</svg>
