<?xml version="1.0" encoding="UTF-8"?>
<svg width="30px" height="30px" viewBox="0 0 30 30" version="1.1" xmlns="http://www.w3.org/2000/svg" xmlns:xlink="http://www.w3.org/1999/xlink">
    <!-- Generator: Sketch 54.1 (76490) - https://sketchapp.com -->
    <title>guarantee</title>
    <desc>Created with Sketch.</desc>
    <g id="Page-1" stroke="none" stroke-width="1" fill="none" fill-rule="evenodd">
        <g id="Artboard" transform="translate(-460.000000, -399.000000)" fill-rule="nonzero">
            <g id="guarantee" transform="translate(460.000000, 399.000000)">
                <g id="settings" fill="#000000">
                    <path d="M29.2610401,11.5841675 L26.9606219,11.0829163 C26.7605856,10.4690552 26.5128236,9.87030028 26.2203047,9.29351805 L27.4938239,7.30796812 C27.7212625,6.95320131 27.6712534,6.48742676 27.3739391,6.18942258 L23.7901826,2.59735107 C23.4928682,2.29934695 23.0281719,2.24922182 22.6742262,2.47718813 L20.6932725,3.75366211 C20.1178254,3.46046449 19.5204565,3.21212765 18.9080164,3.01162723 L18.4079255,0.70587158 C18.3186399,0.293884277 17.9546467,0 17.5340223,0 L12.4659777,0 C12.0453533,0 11.6813601,0.293884277 11.5920745,0.70587158 L11.0919836,3.01162723 C10.4795435,3.21212765 9.88217458,3.46046449 9.3067275,3.75366211 L7.32577375,2.47718813 C6.97182813,2.24922182 6.50713179,2.29934695 6.20981743,2.59735107 L2.62606091,6.18942258 C2.32874661,6.48742676 2.27873751,6.95320131 2.50617612,7.30796812 L3.7796953,9.29351805 C3.48717638,9.87030028 3.2394144,10.4690552 3.03937809,11.0829163 L0.73895984,11.5841675 C0.327926212,11.6738891 0.0347222222,12.0384979 0.0347222222,12.4600983 L0.0347222222,17.5399017 C0.0347222222,17.9615021 0.327926212,18.3261109 0.73895984,18.4158325 L3.03937809,18.9170837 C3.2394144,19.5309448 3.48717638,20.1296997 3.7796953,20.7064819 L2.50617612,22.6920319 C2.27873751,23.0467987 2.32874661,23.5125732 2.62606091,23.8105774 L6.20981743,27.4026489 C6.50713179,27.7006531 6.97182813,27.7507782 7.32577375,27.5228119 L9.3067275,26.2463379 C9.88217458,26.5395355 10.4795435,26.7878724 11.0919836,26.9883728 L11.5920745,29.2941284 C11.6813601,29.7061158 12.0453533,30 12.4659777,30 L17.5340223,30 C17.9546467,30 18.3186399,29.7061158 18.4079255,29.2941284 L18.9080164,26.9883728 C19.5204565,26.7878724 20.1178254,26.5395355 20.6932725,26.2463379 L22.6742262,27.5228119 C23.0281719,27.7507782 23.4928682,27.700882 23.7901826,27.4026489 L27.3739391,23.8105774 C27.6712534,23.5125732 27.7212625,23.0467987 27.4938239,22.6920319 L26.2203047,20.7064819 C26.5128236,20.1296997 26.7605856,19.5309448 26.9606219,18.9170837 L29.2610401,18.4158325 C29.6720738,18.3261109 29.9652778,17.9615021 29.9652778,17.5399017 L29.9652778,12.4600983 C29.9652778,12.0384979 29.6720738,11.6738891 29.2610401,11.5841675 Z M20.366044,15 C20.366044,17.9656219 17.9587571,20.3784942 15,20.3784942 C12.0412429,20.3784942 9.63395597,17.9656219 9.63395597,15 C9.63395597,12.0343781 12.0412429,9.62150575 15,9.62150575 C17.9587571,9.62150575 20.366044,12.0343781 20.366044,15 Z" id="Shape"></path>
                </g>
                <g id="tick" transform="translate(5.833333, 5.777262)">
                    <path d="M9.20140799,3.76126372e-05 C14.2831707,3.76126372e-05 18.4027778,4.1292031 18.4027778,9.22275661 C18.4027778,14.3163102 14.2831707,18.4454756 9.20140799,18.4454756 C4.11964526,18.4454756 3.81661451e-05,14.3163102 3.81661451e-05,9.22275661 L3.81661451e-05,9.22275661 C-0.0144216868,4.14364636 4.08171942,0.0145310156 9.14902229,3.76126372e-05 C9.16648417,-1.25375461e-05 9.18394604,-1.25375461e-05 9.20140799,3.76126372e-05 Z" id="Path" fill="#3EC24F"></path>
                    <polygon id="Path" fill="#D4E1F4" points="14.3055556 6.61570997 7.76176111 13.1554524 4.09722222 9.51936926 5.5892306 8.05447135 7.76176111 10.1995201 12.8135973 5.15081206"></polygon>
                </g>
            </g>
        </g>
    </g>
</svg>