<svg width="20" height="20" viewBox="0 0 19 17" fill="none" xmlns="http://www.w3.org/2000/svg">
<path d="M9.5 15.7188C9.5 15.7188 1.29688 11.125 1.29688 5.54688C1.29704 4.56098 1.63866 3.60556 2.26365 2.84306C2.88864 2.08057 3.75842 1.55807 4.72512 1.36439C5.69181 1.17071 6.69575 1.31781 7.56624 1.78069C8.43673 2.24356 9.12005 2.99364 9.50001 3.90339L9.49999 3.90339C9.87995 2.99364 10.5633 2.24357 11.4338 1.78069C12.3042 1.31782 13.3082 1.17071 14.2749 1.36439C15.2416 1.55806 16.1114 2.08057 16.7363 2.84306C17.3613 3.60556 17.703 4.56098 17.7031 5.54688C17.7031 11.125 9.5 15.7188 9.5 15.7188Z" stroke="white" stroke-width="2" stroke-linecap="round" stroke-linejoin="round"/>
</svg>
