<svg width="20" height="18" viewBox="0 0 20 18" fill="none" xmlns="http://www.w3.org/2000/svg">
<path d="M10.2345 16.5543C10.2345 16.5543 1.60706 11.7302 1.60706 5.87247C1.60723 4.83714 1.96652 3.83383 2.62384 3.03311C3.28115 2.23239 4.19592 1.6837 5.21262 1.48031C6.22931 1.27692 7.28518 1.4314 8.2007 1.91748C9.11621 2.40356 9.83487 3.19123 10.2345 4.14659L10.2345 4.14659C10.6341 3.19124 11.3527 2.40356 12.2683 1.91748C13.1838 1.43141 14.2396 1.27693 15.2563 1.48031C16.273 1.6837 17.1878 2.23239 17.8451 3.03311C18.5024 3.83383 18.8617 4.83714 18.8619 5.87247C18.8619 11.7302 10.2345 16.5543 10.2345 16.5543Z" stroke="white" stroke-width="2" stroke-linecap="round" stroke-linejoin="round"/>
</svg>
