<svg width="16" height="16" viewBox="0 0 16 16" fill="none" xmlns="http://www.w3.org/2000/svg">
<path d="M7.99785 5.3321C6.52888 5.3321 5.3301 6.53088 5.3301 7.99985C5.3301 9.46881 6.52888 10.6676 7.99785 10.6676C9.46681 10.6676 10.6656 9.46881 10.6656 7.99985C10.6656 6.53088 9.46681 5.3321 7.99785 5.3321ZM15.9991 7.99985C15.9991 6.89512 16.0091 5.8004 15.9471 4.69768C15.885 3.41684 15.5928 2.28009 14.6562 1.34348C13.7176 0.404861 12.5829 0.11467 11.302 0.0526294C10.1973 -0.00941132 9.10258 0.000595279 7.99985 0.000595279C6.89512 0.000595279 5.80041 -0.00941132 4.69768 0.0526294C3.41684 0.11467 2.28009 0.406862 1.34348 1.34348C0.404861 2.28209 0.11467 3.41684 0.0526294 4.69768C-0.00941132 5.80241 0.000595279 6.89712 0.000595279 7.99985C0.000595279 9.10257 -0.00941132 10.1993 0.0526294 11.302C0.11467 12.5829 0.406862 13.7196 1.34348 14.6562C2.28209 15.5948 3.41684 15.885 4.69768 15.9471C5.80241 16.0091 6.89713 15.9991 7.99985 15.9991C9.10458 15.9991 10.1993 16.0091 11.302 15.9471C12.5829 15.885 13.7196 15.5928 14.6562 14.6562C15.5948 13.7176 15.885 12.5829 15.9471 11.302C16.0111 10.1993 15.9991 9.10457 15.9991 7.99985ZM7.99785 12.1045C5.72636 12.1045 3.89315 10.2713 3.89315 7.99985C3.89315 5.72836 5.72636 3.89515 7.99785 3.89515C10.2693 3.89515 12.1025 5.72836 12.1025 7.99985C12.1025 10.2713 10.2693 12.1045 7.99785 12.1045ZM12.2707 4.68567C11.7403 4.68567 11.312 4.25739 11.312 3.72704C11.312 3.19669 11.7403 2.76841 12.2707 2.76841C12.801 2.76841 13.2293 3.19669 13.2293 3.72704C13.2294 3.85298 13.2048 3.9777 13.1566 4.09408C13.1085 4.21046 13.0379 4.3162 12.9489 4.40525C12.8598 4.4943 12.7541 4.5649 12.6377 4.61302C12.5213 4.66114 12.3966 4.68583 12.2707 4.68567Z" fill="#ACB5BD"/>
</svg>
