<svg width="25" height="25" viewBox="0 0 25 25" fill="none" xmlns="http://www.w3.org/2000/svg">
<path d="M23.7465 16.8033L17.8917 14.2942C17.586 14.1626 17.2523 14.1096 16.9209 14.1401C16.5895 14.1705 16.271 14.2834 15.9944 14.4685L12.864 16.5552C10.9508 15.6247 9.40234 14.083 8.46338 12.174L8.46362 12.1737L10.543 8.99646C10.724 8.72063 10.8338 8.40424 10.8626 8.07558C10.8914 7.74693 10.8383 7.41626 10.708 7.11316L8.19653 1.25342C8.02558 0.855659 7.73038 0.523977 7.35513 0.308034C6.97989 0.0920911 6.54479 0.00350612 6.11499 0.0555428C4.42607 0.272694 2.87398 1.09728 1.74865 2.37525C0.623315 3.65323 0.00172616 5.29718 0 7C0 16.9253 8.07471 25 18 25C19.7028 24.9983 21.3468 24.3767 22.6248 23.2513C23.9028 22.126 24.7273 20.5738 24.9445 18.8849C24.9964 18.4551 24.9077 18.02 24.6917 17.6448C24.4758 17.2696 24.1442 16.9744 23.7465 16.8033Z" fill="#124193"/>
</svg>
