<svg width="16" height="16" viewBox="0 0 16 16" fill="none" xmlns="http://www.w3.org/2000/svg">
<path d="M14.6667 0H1.33333C0.979835 0.000404282 0.640932 0.14101 0.390971 0.390971C0.14101 0.640932 0.000404282 0.979835 0 1.33333V14.6667C0.000404282 15.0202 0.14101 15.3591 0.390971 15.609C0.640932 15.859 0.979835 15.9996 1.33333 16H14.6667C15.0202 15.9996 15.3591 15.859 15.609 15.609C15.859 15.3591 15.9996 15.0202 16 14.6667V1.33333C15.9996 0.979835 15.859 0.640932 15.609 0.390971C15.3591 0.14101 15.0202 0.000404282 14.6667 0ZM5.33333 12.0001C5.33333 12.1769 5.2631 12.3465 5.13807 12.4715C5.01305 12.5965 4.84348 12.6667 4.66667 12.6667C4.48986 12.6667 4.32029 12.5965 4.19526 12.4715C4.07024 12.3465 4 12.1769 4 12.0001V6.66675C4 6.48993 4.07024 6.32036 4.19526 6.19534C4.32029 6.07032 4.48986 6.00008 4.66667 6.00008C4.84348 6.00008 5.01305 6.07032 5.13807 6.19534C5.2631 6.32036 5.33333 6.48993 5.33333 6.66675V12.0001ZM4.66667 5.00008C4.46889 5.00008 4.27555 4.94143 4.1111 4.83155C3.94665 4.72167 3.81847 4.56549 3.74279 4.38276C3.6671 4.20004 3.6473 3.99897 3.68588 3.80499C3.72447 3.61101 3.81971 3.43282 3.95956 3.29297C4.09941 3.15312 4.2776 3.05788 4.47158 3.01929C4.66556 2.98071 4.86662 3.00051 5.04935 3.0762C5.23208 3.15189 5.38826 3.28006 5.49814 3.44451C5.60802 3.60896 5.66667 3.8023 5.66667 4.00008C5.66667 4.2653 5.56131 4.51965 5.37377 4.70719C5.18624 4.89472 4.93188 5.00008 4.66667 5.00008ZM12.6667 12.0001C12.6667 12.1769 12.5964 12.3465 12.4714 12.4715C12.3464 12.5965 12.1768 12.6667 12 12.6667C11.8232 12.6667 11.6536 12.5965 11.5286 12.4715C11.4036 12.3465 11.3333 12.1769 11.3333 12.0001V9.00008C11.3333 8.55805 11.1577 8.13413 10.8452 7.82157C10.5326 7.50901 10.1087 7.33341 9.66667 7.33341C9.22464 7.33341 8.80072 7.50901 8.48816 7.82157C8.1756 8.13413 8 8.55805 8 9.00008V12.0001C8 12.1769 7.92976 12.3465 7.80474 12.4715C7.67971 12.5965 7.51014 12.6667 7.33333 12.6667C7.15652 12.6667 6.98695 12.5965 6.86193 12.4715C6.73691 12.3465 6.66667 12.1769 6.66667 12.0001V6.66675C6.66661 6.50287 6.72694 6.34471 6.83612 6.22251C6.9453 6.1003 7.09569 6.0226 7.25854 6.00426C7.42138 5.98593 7.58528 6.02823 7.71891 6.1231C7.85253 6.21797 7.94652 6.35875 7.98291 6.51853C8.43377 6.21214 8.95961 6.03446 9.5039 6.00458C10.0482 5.97471 10.5903 6.09378 11.072 6.34898C11.5537 6.60418 11.9567 6.98587 12.2377 7.45298C12.5186 7.9201 12.667 8.45497 12.6667 9.00008V12.0001Z" fill="#ACB5BD"/>
</svg>
