<svg width="35" height="47" viewBox="0 0 35 47" fill="none" xmlns="http://www.w3.org/2000/svg">
<path d="M17.5505 26.4889C15.1409 26.6155 12.7368 26.1507 10.5479 25.1351C8.35902 24.1194 6.45182 22.5838 4.99259 20.662C-1.71336 11.3942 3.4354 5.44174 10.7944 2.3776C14.0669 0.976893 17.7017 0.660053 21.1672 1.47343C22.7956 1.77216 24.2839 2.58871 25.4108 3.80153C26.5376 5.01436 27.2427 6.55862 27.4211 8.20449C28.6267 14.8602 28.5262 14.8602 33.1475 20.1094C29.8322 21.9429 29.9327 25.1326 30.2843 28.674C23.7793 28.8247 18.078 33.5213 11.2465 31.4116" stroke="white" stroke-width="2" stroke-linecap="round" stroke-linejoin="round"/>
<path d="M22.5234 12.2227C18.2537 16.4672 18.4797 21.1388 21.1671 26.0364" stroke="white" stroke-width="2" stroke-linecap="round" stroke-linejoin="round"/>
<path d="M11.2455 39.4487C15.3645 39.9259 18.7803 42.9398 22.9746 43.0152" stroke="white" stroke-width="2" stroke-linecap="round" stroke-linejoin="round"/>
<path d="M11.2455 35.8569L23.8034 40.3276" stroke="white" stroke-width="2" stroke-linecap="round" stroke-linejoin="round"/>
<path d="M11.2455 35.8573C14.8371 33.8481 19.9356 35.4555 22.9746 34.9783" stroke="white" stroke-width="2" stroke-linecap="round" stroke-linejoin="round"/>
<path d="M11.698 16.2417C12.5383 17.549 13.0934 19.0188 13.3271 20.5551C13.5608 22.0915 13.4678 23.6599 13.0543 25.1579" stroke="white" stroke-width="2" stroke-linecap="round" stroke-linejoin="round"/>
<path d="M13.0546 44.3462C15.4155 44.9741 17.5754 46.6569 20.2628 45.6773" stroke="white" stroke-width="2" stroke-linecap="round" stroke-linejoin="round"/>
<path d="M8.53345 14.4333C10.1911 14.4333 13.205 17.0705 14.8375 14.0063" stroke="white" stroke-width="2" stroke-linecap="round" stroke-linejoin="round"/>
<path d="M18.4286 12.9766C18.2277 14.4082 15.917 14.81 14.837 13.9812" stroke="white" stroke-width="2" stroke-linecap="round" stroke-linejoin="round"/>
<path d="M23.051 11.394C22.85 12.8257 19.6352 13.5038 18.4296 12.675" stroke="white" stroke-width="2" stroke-linecap="round" stroke-linejoin="round"/>
</svg>
