<svg width="33" height="33" viewBox="0 0 33 33" fill="none" xmlns="http://www.w3.org/2000/svg">
<path d="M16.5 33C13.2366 33 10.0465 32.0323 7.3331 30.2192C4.61969 28.4062 2.50484 25.8293 1.25599 22.8143C0.00714914 19.7993 -0.319606 16.4817 0.31705 13.281C0.953706 10.0803 2.52518 7.14031 4.83274 4.83274C7.14031 2.52518 10.0803 0.953706 13.281 0.31705C16.4817 -0.319606 19.7993 0.00714914 22.8143 1.25599C25.8293 2.50484 28.4062 4.61969 30.2192 7.3331C32.0323 10.0465 33 13.2366 33 16.5C32.9948 20.8745 31.2547 25.0683 28.1615 28.1615C25.0683 31.2547 20.8745 32.9948 16.5 33ZM16.5 0.985082C13.4314 0.985082 10.4318 1.89502 7.88037 3.59982C5.32896 5.30462 3.34037 7.72772 2.16609 10.5627C0.991797 13.3977 0.68455 16.5172 1.2832 19.5268C1.88184 22.5364 3.3595 25.3009 5.5293 27.4707C7.6991 29.6405 10.4636 31.1182 13.4732 31.7168C16.4828 32.3155 19.6023 32.0082 22.4373 30.8339C25.2723 29.6596 27.6954 27.671 29.4002 25.1196C31.105 22.5682 32.0149 19.5686 32.0149 16.5C32.011 12.3864 30.3752 8.44238 27.4664 5.53362C24.5576 2.62485 20.6136 0.988994 16.5 0.985082ZM17.5294 28.0746C16.8585 28.0367 16.2012 27.8694 15.5937 27.5821C15.2954 27.4535 14.9894 27.3433 14.6776 27.2521C14.5586 27.2127 14.459 27.1294 14.3993 27.0191C14.3396 26.9088 14.3241 26.7799 14.3562 26.6587C14.3882 26.5374 14.4653 26.433 14.5717 26.3666C14.6781 26.3002 14.8058 26.2769 14.9288 26.3015C15.2794 26.4007 15.6233 26.5224 15.9582 26.666C16.7413 26.9812 17.4358 27.2521 18.1845 26.9713C18.3066 26.9267 18.4415 26.9323 18.5596 26.9867C18.6777 27.0411 18.7695 27.1401 18.8149 27.2619C18.8378 27.3227 18.8484 27.3874 18.8461 27.4523C18.8439 27.5172 18.8288 27.581 18.8018 27.6401C18.7748 27.6991 18.7364 27.7523 18.6887 27.7964C18.6411 27.8405 18.5853 27.8748 18.5243 27.8973C18.2053 28.0131 17.8688 28.0731 17.5294 28.0746ZM19.7015 26.597C18.5531 26.5122 17.4339 26.1955 16.4113 25.6661C15.6108 25.2679 14.7562 24.9891 13.8748 24.8387C13.8101 24.8312 13.7475 24.8111 13.6906 24.7795C13.6337 24.7479 13.5836 24.7053 13.5431 24.6543C13.5026 24.6033 13.4726 24.5449 13.4547 24.4823C13.4368 24.4197 13.4314 24.3542 13.4389 24.2895C13.4463 24.2248 13.4664 24.1622 13.4981 24.1053C13.5297 24.0484 13.5722 23.9983 13.6232 23.9578C13.6742 23.9173 13.7327 23.8873 13.7953 23.8694C13.8579 23.8515 13.9234 23.8461 13.9881 23.8536C14.9676 24.0086 15.9177 24.3125 16.8054 24.7549C17.7042 25.2301 18.6888 25.5215 19.7015 25.6119C19.8321 25.6119 19.9574 25.6638 20.0498 25.7562C20.1421 25.8486 20.194 25.9739 20.194 26.1045C20.194 26.2351 20.1421 26.3604 20.0498 26.4528C19.9574 26.5451 19.8321 26.597 19.7015 26.597ZM20.1103 25.277C20.0548 25.2764 19.9999 25.2664 19.9478 25.2475L13.7467 23.0507C13.6596 23.0179 13.5835 22.961 13.5274 22.8867C13.4713 22.8123 13.4374 22.7236 13.4297 22.6308C13.422 22.538 13.4407 22.4449 13.4837 22.3623C13.5268 22.2797 13.5923 22.211 13.6728 22.1642C14.9387 21.4549 16.4705 21.5633 17.82 21.6716C18.4162 21.7303 19.0167 21.7303 19.6128 21.6716C19.7415 21.6518 19.8727 21.6836 19.9779 21.7602C20.0831 21.8368 20.1537 21.952 20.1743 22.0805C20.1863 22.1452 20.1852 22.2118 20.171 22.2761C20.1568 22.3404 20.1298 22.4013 20.0917 22.455C20.0536 22.5087 20.0051 22.5543 19.9491 22.5889C19.893 22.6236 19.8306 22.6466 19.7655 22.6567C19.0893 22.7269 18.4076 22.7269 17.7313 22.6567C16.9713 22.5829 16.206 22.5829 15.446 22.6567L20.2433 24.3609C20.3558 24.3977 20.4513 24.4739 20.5123 24.5754C20.5733 24.6769 20.5957 24.797 20.5753 24.9136C20.555 25.0303 20.4933 25.1357 20.4016 25.2106C20.3098 25.2855 20.1942 25.3248 20.0758 25.3213L20.1103 25.277ZM15.707 21.1791C15.0564 21.172 14.4106 21.0674 13.791 20.8688C13.6663 20.8302 13.562 20.7437 13.5011 20.6283C13.4401 20.5128 13.4275 20.3779 13.466 20.2531C13.5046 20.1284 13.5911 20.0241 13.7065 19.9632C13.822 19.9022 13.9569 19.8896 14.0816 19.9281C15.9484 20.5043 17.6427 19.9625 19.4355 19.3863C20.5162 18.9993 21.636 18.7317 22.7749 18.5884C22.6567 17.2979 22.6567 15.7612 23.957 14.7318C22.0755 12.5794 21.9869 12.2691 21.4402 9.31389L21.3958 9.05777C21.3187 8.34152 21.015 7.66857 20.529 7.13687C20.0449 6.62149 19.4075 6.27602 18.7115 6.1518C17.1001 5.76488 15.4067 5.91003 13.8846 6.56553C12.3627 7.19598 10.4369 8.33866 9.94433 10.1808C9.56508 11.5402 10.0034 13.1015 11.2496 14.8303C11.9213 15.7012 12.7931 16.3973 13.791 16.8596C13.9782 16.9482 14.1703 17.0221 14.3673 17.096C14.5359 16.4365 14.5669 15.7494 14.4584 15.0775C14.3499 14.4055 14.1043 13.7631 13.7369 13.1902C13.6752 13.0937 13.6491 12.9787 13.663 12.8651C13.5202 12.8208 13.3872 12.7715 13.269 12.7222C13.0516 12.6282 12.8232 12.562 12.5893 12.5252C12.4586 12.5252 12.3334 12.4733 12.241 12.381C12.1486 12.2886 12.0967 12.1633 12.0967 12.0327C12.0967 11.9021 12.1486 11.7768 12.241 11.6844C12.3334 11.592 12.4586 11.5402 12.5893 11.5402C12.9432 11.5675 13.2898 11.6558 13.6137 11.8012C14.4954 12.1312 14.9042 12.2149 15.2342 11.6436C15.2512 11.5964 15.2744 11.5517 15.3031 11.5106C15.3427 11.4589 15.3921 11.4156 15.4486 11.3831C15.505 11.3506 15.5673 11.3296 15.6319 11.3214C15.6965 11.3132 15.762 11.3178 15.8248 11.3351C15.8876 11.3523 15.9463 11.3818 15.9976 11.4219C16.112 11.4852 16.2393 11.5217 16.3699 11.5285C16.5004 11.5353 16.6308 11.5124 16.7512 11.4613C16.83 11.4318 16.963 11.3628 16.9778 11.2496C16.9606 11.1266 16.9905 11.0017 17.0615 10.8999C17.1336 10.7946 17.2436 10.7214 17.3686 10.6957C17.4935 10.67 17.6236 10.6937 17.7313 10.7619C18.1232 10.8985 18.5531 10.8755 18.9282 10.6979C18.9988 10.6715 19.0651 10.635 19.1252 10.5896L19.1843 10.5403C19.2188 10.5058 19.2385 10.4812 19.2385 10.4664C19.2568 10.3358 19.3262 10.2178 19.4315 10.1383C19.5368 10.0589 19.6694 10.0246 19.8 10.0428C19.9306 10.0611 20.0486 10.1306 20.1281 10.2359C20.2075 10.3412 20.2419 10.4737 20.2236 10.6043C20.1743 10.8936 20.0156 11.1529 19.7803 11.3284C18.0466 13.0719 17.8742 15.0421 19.2287 17.5097C19.261 17.5663 19.2819 17.6287 19.2901 17.6934C19.2983 17.758 19.2937 17.8237 19.2766 17.8866C19.2594 17.9495 19.23 18.0084 19.1901 18.0599C19.1502 18.1114 19.1006 18.1546 19.044 18.1869C18.9874 18.2193 18.925 18.2402 18.8603 18.2484C18.7956 18.2566 18.73 18.252 18.6671 18.2349C18.6042 18.2177 18.5453 18.1883 18.4938 18.1484C18.4422 18.1085 18.3991 18.0588 18.3667 18.0022C17.1058 15.7021 17.027 13.6384 18.1254 11.8505C18.0131 11.8506 17.901 11.8407 17.7905 11.8209C17.6328 12.0808 17.3939 12.2816 17.1108 12.3922C16.7138 12.5502 16.2757 12.5727 15.8646 12.4563C15.7334 12.6233 15.5689 12.7613 15.3815 12.8613C15.1941 12.9614 14.9879 13.0214 14.7761 13.0375C15.1005 13.6414 15.3204 14.2958 15.4263 14.9731C15.5457 15.768 15.5039 16.5787 15.3031 17.357C15.8591 17.467 16.4265 17.5084 16.9925 17.4802C17.0572 17.4769 17.1219 17.4865 17.1829 17.5082C17.2439 17.53 17.3 17.5636 17.348 17.607C17.3961 17.6504 17.435 17.7029 17.4628 17.7615C17.4905 17.82 17.5065 17.8834 17.5097 17.9481C17.5129 18.0127 17.5034 18.0774 17.4816 18.1384C17.4599 18.1994 17.4263 18.2555 17.3829 18.3036C17.3394 18.3516 17.2869 18.3906 17.2284 18.4183C17.1699 18.4461 17.1065 18.462 17.0418 18.4652C15.7754 18.5301 14.5124 18.285 13.3622 17.7512C12.2121 17.2173 11.2096 16.4108 10.4418 15.4016C8.99866 13.4069 8.51105 11.5599 8.96418 9.90001C9.45672 8.13672 11.023 6.66896 13.4857 5.63956C15.1944 4.90512 17.0943 4.74104 18.9036 5.17165C19.8029 5.34522 20.6229 5.80236 21.2433 6.47603C21.8638 7.1497 22.2521 8.00445 22.3513 8.91493L22.3907 9.13165C22.9227 12.0869 22.9227 12.0869 25.0504 14.5052C25.0986 14.5606 25.1338 14.6261 25.1534 14.6968C25.173 14.7675 25.1765 14.8418 25.1637 14.914C25.1509 14.9862 25.1222 15.0546 25.0796 15.1143C25.037 15.1739 24.9816 15.2233 24.9175 15.2588C23.5728 16.0075 23.5876 17.2782 23.76 19.0021C23.7662 19.0704 23.758 19.1392 23.736 19.2042C23.7141 19.2692 23.6788 19.3289 23.6324 19.3794C23.586 19.4299 23.5296 19.4702 23.4668 19.4977C23.4039 19.5252 23.3361 19.5392 23.2675 19.539C22.0475 19.6316 20.8469 19.8969 19.7015 20.327C18.4222 20.8163 17.0746 21.1037 15.707 21.1791Z" fill="white"/>
</svg>
