<svg width="90" height="90" viewBox="0 0 90 90" fill="none" xmlns="http://www.w3.org/2000/svg">
<path d="M44.5 83C65.763 83 83 65.763 83 44.5C83 23.237 65.763 6 44.5 6C23.237 6 6 23.237 6 44.5C6 65.763 23.237 83 44.5 83Z" fill="#124193" stroke="#F9F9F9" stroke-width="12" stroke-linecap="round" stroke-linejoin="round"/>
<path d="M45.5505 47.4889C43.1409 47.6155 40.7368 47.1507 38.5479 46.1351C36.359 45.1194 34.4518 43.5838 32.9926 41.662C26.2866 32.3942 31.4354 26.4417 38.7944 23.3776C42.0669 21.9769 45.7017 21.6601 49.1672 22.4734C50.7956 22.7722 52.2839 23.5887 53.4108 24.8015C54.5376 26.0144 55.2427 27.5586 55.4211 29.2045C56.6267 35.8602 56.5262 35.8602 61.1475 41.1094C57.8322 42.9429 57.9327 46.1326 58.2843 49.674C51.7793 49.8247 46.078 54.5213 39.2465 52.4116" stroke="white" stroke-width="2" stroke-linecap="round" stroke-linejoin="round"/>
<path d="M50.5234 33.2229C46.2537 37.4675 46.4797 42.1391 49.1671 47.0367" stroke="white" stroke-width="2" stroke-linecap="round" stroke-linejoin="round"/>
<path d="M39.2455 60.4487C43.3645 60.9259 46.7803 63.9398 50.9746 64.0152" stroke="white" stroke-width="2" stroke-linecap="round" stroke-linejoin="round"/>
<path d="M39.2455 56.8569L51.8034 61.3276" stroke="white" stroke-width="2" stroke-linecap="round" stroke-linejoin="round"/>
<path d="M39.2455 56.8573C42.8371 54.8481 47.9356 56.4555 50.9746 55.9783" stroke="white" stroke-width="2" stroke-linecap="round" stroke-linejoin="round"/>
<path d="M39.698 37.2415C40.5383 38.5487 41.0934 40.0185 41.3271 41.5549C41.5608 43.0912 41.4678 44.6596 41.0543 46.1576" stroke="white" stroke-width="2" stroke-linecap="round" stroke-linejoin="round"/>
<path d="M41.0546 65.3462C43.4155 65.9741 45.5754 67.6569 48.2628 66.6773" stroke="white" stroke-width="2" stroke-linecap="round" stroke-linejoin="round"/>
<path d="M36.5334 35.4333C38.1911 35.4333 41.205 38.0705 42.8375 35.0063" stroke="white" stroke-width="2" stroke-linecap="round" stroke-linejoin="round"/>
<path d="M46.4286 33.9766C46.2277 35.4082 43.917 35.81 42.837 34.9812" stroke="white" stroke-width="2" stroke-linecap="round" stroke-linejoin="round"/>
<path d="M51.0509 32.394C50.85 33.8257 47.6351 34.5038 46.4296 33.675" stroke="white" stroke-width="2" stroke-linecap="round" stroke-linejoin="round"/>
</svg>
