<svg width="22" height="28" viewBox="0 0 22 28" fill="none" xmlns="http://www.w3.org/2000/svg">
<path d="M11 0C8.08368 0.00346028 5.2878 1.1635 3.22565 3.22565C1.1635 5.2878 0.00346028 8.08368 0 11C0 20.4121 10 27.5215 10.4258 27.8193C10.5942 27.9369 10.7946 28 11 28C11.2054 28 11.4058 27.9369 11.5742 27.8193C12 27.5215 22 20.4121 22 11C21.9965 8.08368 20.8365 5.2878 18.7744 3.22565C16.7122 1.1635 13.9163 0.00345995 11 0ZM11.0007 7.00036C11.7919 7.00036 12.5652 7.23496 13.223 7.67448C13.8808 8.11401 14.3935 8.73872 14.6963 9.46963C14.999 10.2005 15.0782 11.0048 14.9239 11.7807C14.7695 12.5566 14.3886 13.2694 13.8292 13.8288C13.2697 14.3882 12.557 14.7692 11.7811 14.9235C11.0052 15.0778 10.2009 14.9986 9.47 14.6959C8.73909 14.3931 8.11438 13.8804 7.67485 13.2226C7.23533 12.5648 7.00073 11.7915 7.00073 11.0004C7.00072 10.4751 7.10417 9.95492 7.30518 9.46961C7.5062 8.9843 7.80083 8.54334 8.17227 8.1719C8.54371 7.80046 8.98467 7.50583 9.46998 7.30481C9.95529 7.1038 10.4754 7.00035 11.0007 7.00036Z" fill="#285AA6"/>
</svg>
