<svg width="22" height="28" viewBox="0 0 22 28" fill="none" xmlns="http://www.w3.org/2000/svg">
<path d="M10.999 -0.000244141C8.0827 0.00321614 5.28682 1.16325 3.22467 3.2254C1.16252 5.28755 0.00248371 8.08344 -0.000976562 10.9998C-0.000976563 20.4119 9.99902 27.5212 10.4248 27.8191C10.5932 27.9367 10.7936 27.9998 10.999 27.9998C11.2044 27.9998 11.4049 27.9367 11.5732 27.8191C11.999 27.5212 21.999 20.4119 21.999 10.9998C21.9956 8.08344 20.8355 5.28755 18.7734 3.2254C16.7112 1.16325 13.9153 0.00321581 10.999 -0.000244141ZM10.9998 7.00012C11.7909 7.00012 12.5642 7.23471 13.222 7.67424C13.8798 8.11377 14.3925 8.73848 14.6953 9.46938C14.998 10.2003 15.0772 11.0046 14.9229 11.7805C14.7686 12.5564 14.3876 13.2691 13.8282 13.8285C13.2688 14.388 12.556 14.7689 11.7801 14.9233C11.0042 15.0776 10.1999 14.9984 9.46902 14.6956C8.73812 14.3929 8.1134 13.8802 7.67388 13.2224C7.23435 12.5646 6.99976 11.7912 6.99976 11.0001C6.99974 10.4748 7.10319 9.95468 7.30421 9.46937C7.50522 8.98406 7.79986 8.54309 8.1713 8.17166C8.54273 7.80022 8.9837 7.50558 9.469 7.30457C9.95431 7.10356 10.4745 7.0001 10.9998 7.00012Z" fill="#285AA6"/>
</svg>
