<svg width="92" height="92" viewBox="0 0 92 92" fill="none" xmlns="http://www.w3.org/2000/svg">
<path d="M46 63.25C61.8782 63.25 74.75 50.3782 74.75 34.5C74.75 18.6218 61.8782 5.75 46 5.75C30.1218 5.75 17.25 18.6218 17.25 34.5C17.25 50.3782 30.1218 63.25 46 63.25Z" stroke="#124193" stroke-width="4" stroke-linecap="round" stroke-linejoin="round"/>
<path d="M46 51.75C55.5269 51.75 63.25 44.0269 63.25 34.5C63.25 24.9731 55.5269 17.25 46 17.25C36.4731 17.25 28.75 24.9731 28.75 34.5C28.75 44.0269 36.4731 51.75 46 51.75Z" stroke="#124193" stroke-width="6" stroke-linecap="round" stroke-linejoin="round"/>
<path d="M63.25 57.4978V86.2496L45.9975 77.6246L28.75 86.2496V57.5003" stroke="#124193" stroke-width="4" stroke-linecap="round" stroke-linejoin="round"/>
</svg>
