<?xml version="1.0" encoding="UTF-8"?>
<svg width="8px" height="8px" viewBox="0 0 10 10" version="1.1" xmlns="http://www.w3.org/2000/svg" xmlns:xlink="http://www.w3.org/1999/xlink">
    <!-- Generator: Sketch 54.1 (76490) - https://sketchapp.com -->
    <title>PhoneIcon</title>
    <desc>Created with Sketch.</desc>
    <g id="Page-1" stroke="none" stroke-width="1" fill="none" fill-rule="evenodd">
        <g id="Artboard" transform="translate(-801.000000, -721.000000)" fill="#285AA6" fill-rule="nonzero">
            <g id="PhoneIcon" transform="translate(801.000000, 721.000000)">
                <path d="M9.4986,6.72132 L7.15668,5.71768 C7.0344,5.66504 6.90092,5.64384 6.76836,5.65604 C6.6358,5.6682 6.5084,5.71336 6.39776,5.7874 L5.1456,6.62208 C4.38032,6.24988 3.760936,5.6332 3.385352,4.8696 L3.385448,4.86948 L4.2172,3.598584 C4.2896,3.488252 4.33352,3.361696 4.34504,3.230232 C4.35656,3.098772 4.33532,2.966504 4.2832,2.845264 L3.278612,0.501368 C3.210232,0.3422636 3.092152,0.2095908 2.942052,0.1232136 C2.791956,0.03683644 2.617916,0.001402448 2.445996,0.02221712 C1.770428,0.1090776 1.149592,0.438912 0.69946,0.9501 C0.249326,1.461292 0.000690464,2.118872 0,2.8 C0,6.77012 3.229884,10 7.2,10 C7.88112,9.99932 8.53872,9.75068 9.04992,9.30052 C9.56112,8.8504 9.89092,8.22952 9.9778,7.55396 C9.99856,7.38204 9.96308,7.208 9.87668,7.05792 C9.79032,6.90784 9.65768,6.78976 9.4986,6.72132 Z" id="Path"></path>
            </g>
        </g>
    </g>
</svg>