<svg width="14" height="14" viewBox="0 0 14 14" fill="none" xmlns="http://www.w3.org/2000/svg">
<path d="M3.7155 6.98716C4.30305 8.18836 5.27674 9.15763 6.4806 9.7397C6.56868 9.78144 6.66612 9.79953 6.76331 9.79217C6.8605 9.78482 6.9541 9.75228 7.0349 9.69777L8.80751 8.51575C8.88591 8.46347 8.97611 8.43158 9.06994 8.42296C9.16377 8.41434 9.25827 8.42927 9.34488 8.46639L12.6611 9.88762C12.7738 9.93547 12.8678 10.0186 12.9291 10.1246C12.9904 10.2305 13.0155 10.3535 13.0008 10.4751C12.896 11.2952 12.4958 12.0491 11.8752 12.5955C11.2546 13.1419 10.4561 13.4433 9.62925 13.4433C7.07542 13.4433 4.62618 12.4288 2.82034 10.623C1.01451 8.81716 0 6.36793 0 3.81409C4.34793e-05 2.98723 0.301476 2.18874 0.847857 1.56812C1.39424 0.947503 2.1481 0.547322 2.96829 0.442505C3.0898 0.427801 3.21279 0.452983 3.31875 0.514259C3.4247 0.575534 3.50787 0.669584 3.55572 0.782236L4.9782 4.10135C5.01499 4.1872 5.02998 4.28082 5.02184 4.37386C5.01369 4.46691 4.98266 4.5565 4.93151 4.63465L3.7536 6.43446C3.69999 6.51542 3.6683 6.60891 3.66162 6.70578C3.65494 6.80265 3.6735 6.89961 3.7155 6.98716Z" fill="#FFC91A"/>
</svg>
