<svg width="8" height="8" viewBox="0 0 8 8" fill="none" xmlns="http://www.w3.org/2000/svg">
<path d="M2.28559 4.02847C2.64703 4.76739 3.24599 5.36364 3.98655 5.7217C4.04074 5.74738 4.10067 5.7585 4.16046 5.75398C4.22025 5.74945 4.27783 5.72944 4.32753 5.6959L5.41795 4.96878C5.46618 4.93663 5.52167 4.91701 5.57939 4.91171C5.63711 4.9064 5.69524 4.91558 5.74852 4.93842L7.78849 5.81269C7.85779 5.84213 7.91565 5.89329 7.95334 5.95847C7.99104 6.02364 8.00653 6.09931 7.99748 6.17405C7.93301 6.67859 7.68683 7.14233 7.30506 7.47844C6.92329 7.81455 6.43209 7.99997 5.92345 8C4.35245 8 2.8458 7.37592 1.73494 6.26506C0.624076 5.1542 0 3.64755 0 2.07655C2.67463e-05 1.56791 0.185453 1.07671 0.52156 0.694939C0.857667 0.313166 1.32141 0.0669939 1.82595 0.00251581C1.90069 -0.00652969 1.97635 0.00896136 2.04153 0.0466551C2.10671 0.0843488 2.15787 0.142203 2.18731 0.211502L3.06234 2.25326C3.08498 2.30607 3.0942 2.36366 3.08919 2.4209C3.08418 2.47813 3.06509 2.53325 3.03363 2.58132L2.30903 3.68847C2.27606 3.73828 2.25656 3.79579 2.25245 3.85538C2.24834 3.91497 2.25976 3.97461 2.28559 4.02847Z" fill="white"/>
</svg>
