<svg width="70" height="70" viewBox="0 0 70 70" fill="none" xmlns="http://www.w3.org/2000/svg">
<path d="M43.5918 10.9375C47.3001 11.9348 50.6813 13.889 53.3967 16.6044C56.1121 19.3198 58.0663 22.701 59.0636 26.4093" stroke="#124193" stroke-width="4" stroke-linecap="round" stroke-linejoin="round"/>
<path d="M41.3281 19.3916C43.5531 19.99 45.5818 21.1625 47.2111 22.7918C48.8403 24.421 50.0128 26.4497 50.6112 28.6747" stroke="#124193" stroke-width="4" stroke-linecap="round" stroke-linejoin="round"/>
<path d="M25.2865 34.1289C27.5556 38.7679 31.3159 42.5111 35.9651 44.7591C36.3053 44.9202 36.6816 44.9901 37.0569 44.9617C37.4323 44.9333 37.7938 44.8076 38.1058 44.5971L44.9515 40.0322C45.2542 39.8303 45.6026 39.7072 45.965 39.6739C46.3273 39.6406 46.6923 39.6982 47.0268 39.8416L59.8338 45.3303C60.2688 45.5151 60.6321 45.8363 60.8687 46.2455C61.1054 46.6547 61.2026 47.1297 61.1458 47.5989C60.741 50.7664 59.1956 53.6778 56.7988 55.7879C54.402 57.898 51.3183 59.0621 48.125 59.0622C38.2623 59.0622 28.8035 55.1443 21.8295 48.1703C14.8555 41.1963 10.9375 31.7375 10.9375 21.8747C10.9377 18.6815 12.1018 15.5978 14.2119 13.201C16.3219 10.8042 19.2333 9.25872 22.4008 8.85393C22.8701 8.79714 23.3451 8.89439 23.7543 9.13104C24.1634 9.36768 24.4846 9.73089 24.6694 10.1659L30.1629 22.9841C30.305 23.3157 30.3629 23.6772 30.3315 24.0366C30.3 24.3959 30.1802 24.7419 29.9827 25.0437L25.4336 31.9944C25.2266 32.3071 25.1042 32.6681 25.0784 33.0423C25.0526 33.4164 25.1243 33.7908 25.2865 34.1289V34.1289Z" stroke="#124193" stroke-width="4" stroke-linecap="round" stroke-linejoin="round"/>
</svg>
