<?xml version="1.0" encoding="UTF-8"?>
<svg width="30px" height="27px" viewBox="0 0 30 27" version="1.1" xmlns="http://www.w3.org/2000/svg" xmlns:xlink="http://www.w3.org/1999/xlink">
    <!-- Generator: Sketch 54.1 (76490) - https://sketchapp.com -->
    <title>rotary_phone_black</title>
    <desc>Created with Sketch.</desc>
    <g id="Page-1" stroke="none" stroke-width="1" fill="none" fill-rule="evenodd">
        <g id="Artboard" transform="translate(-423.000000, -375.000000)" fill-rule="nonzero">
            <g id="rotary_phone_black" transform="translate(423.000000, 375.000000)">
                <path d="M29.4574269,5.75695907 C21.3637427,-1.91959064 8.67643277,-1.91461988 0.588771932,5.76818713 C0.246842105,6.11011693 0.0559064327,6.57461988 0.0585380117,7.05818713 C0.0536842105,7.53888891 0.245146199,8.00076023 0.588771932,8.33695904 L3.55175439,11.3023976 C4.26730994,11.9682456 5.37204679,11.980117 6.10175437,11.3298246 C7.00760232,10.4878948 8.02777775,9.77807016 9.13210523,9.22146199 C9.73467838,8.85584795 10.0841521,8.18573098 10.0390644,7.4823392 L10.0390644,4.2 C11.6761403,3.83508772 13.3530994,3.68040936 15.0292982,3.73964912 C16.7057895,3.67637427 18.3833333,3.83198831 20.0195321,4.20251462 L20.0195321,7.4823392 C19.9580117,8.18637428 20.3026316,8.8639766 20.9077778,9.22894734 C22.0183626,9.78093568 23.0432164,10.4906433 23.9505848,11.3360819 C24.2941521,11.6561404 24.7460819,11.8343859 25.2156141,11.8350877 C25.6991813,11.8377193 26.1636842,11.6467836 26.5056141,11.3048538 L29.4698246,8.3406433 C30.1811696,7.62087721 30.1755555,6.46111113 29.4573684,5.74818714 L29.4574269,5.75695907 Z" id="Path" fill="#000000"></path>
                <path d="M26.7801169,17.7322807 C26.7535672,17.6804094 26.7204094,17.6322222 26.6815789,17.5888304 L19.8549123,10.1733333 C19.7357895,10.0470175 19.5694152,9.9760234 19.3957895,9.97748537 L10.6628655,9.97748537 C10.4884795,9.97730994 10.3219883,10.0501754 10.2037427,10.1783626 L3.37707602,17.5876024 C3.33818713,17.6309941 3.30508772,17.6792398 3.27853801,17.7310526 C2.8028655,18.6846783 2.55479532,19.735614 2.55368421,20.8012866 L2.55368421,25.5719883 C2.55368421,25.9164912 2.83298246,26.1957895 3.17748538,26.1957895 L26.8811696,26.1957895 C27.2256725,26.1957895 27.5049708,25.9164912 27.5049708,25.5719883 L27.5049708,20.8063158 C27.5045029,19.7393567 27.2563743,18.687076 26.7801169,17.7322807 Z" id="Path" fill="#000000"></path>
                <g id="Group" transform="translate(10.000000, 12.456140)" fill="#FAFAFA">
                    <path d="M2.11625731,5.00666667 L0.662865498,5.00666667 C0.318362573,5.00666667 0.0390643275,5.28596491 0.0390643275,5.63046783 C0.0390643275,5.97497074 0.318362573,6.25426898 0.662865498,6.25426898 L2.11625731,6.25426898 C2.46076024,6.25426898 2.74005848,5.97497074 2.74005848,5.63046783 C2.74005848,5.28596491 2.46076024,5.00666667 2.11625731,5.00666667 Z" id="Path"></path>
                    <path d="M5.79157895,5.00666667 L4.23584796,5.00666667 C3.89134503,5.00666667 3.61204678,5.28596491 3.61204678,5.63046783 C3.61204678,5.97497074 3.89134503,6.25426898 4.23584796,6.25426898 L5.79157895,6.25426898 C6.13608188,6.25426898 6.41538012,5.97497074 6.41538012,5.63046783 C6.41538012,5.28596491 6.13608188,5.00666667 5.79157895,5.00666667 Z" id="Path"></path>
                    <path d="M9.39578947,5.00666667 L7.97105262,5.00666667 C7.62654973,5.00666667 7.34725148,5.28596491 7.34725148,5.63046783 C7.34725148,5.97497074 7.62654973,6.25426898 7.97105262,6.25426898 L9.39578947,6.25426898 C9.74029242,6.25426898 10.0195907,5.97497074 10.0195907,5.63046783 C10.0195907,5.28596491 9.74029242,5.00666667 9.39578947,5.00666667 Z" id="Path"></path>
                    <path d="M2.53421053,2.51157895 L1.28666667,2.51157895 C0.94216374,2.51157895 0.662865498,2.7908772 0.662865498,3.13538012 C0.662865498,3.47988304 0.94216374,3.75918129 1.28666667,3.75918129 L2.53421053,3.75918129 C2.87871345,3.75918129 3.15801169,3.47988304 3.15801169,3.13538012 C3.15801169,2.7908772 2.87871345,2.51157895 2.53421053,2.51157895 Z" id="Path"></path>
                    <path d="M4.40555555,3.75912281 L5.65309942,3.75912281 C5.99760234,3.75912281 6.27690059,3.47982456 6.27690059,3.13532164 C6.27690059,2.79081871 5.99760234,2.51152047 5.65309942,2.51152047 L4.40555555,2.51152047 C4.06105263,2.51152047 3.78175438,2.79081871 3.78175438,3.13532164 C3.78175438,3.47982456 4.06105263,3.75912281 4.40555555,3.75912281 Z" id="Path"></path>
                    <path d="M8.77204676,3.75912281 C9.11654971,3.75912281 9.39584795,3.47982456 9.39584795,3.13532164 C9.39584795,2.79081871 9.11654971,2.51152047 8.77204676,2.51152047 L7.52450291,2.51152047 C7.18000002,2.51152047 6.90070178,2.79081871 6.90070178,3.13532164 C6.90070178,3.47982456 7.18000002,3.75912281 7.52450291,3.75912281 L8.77204676,3.75912281 Z" id="Path"></path>
                    <path d="M2.53421053,0.0164327486 L1.91040936,0.0164327486 C1.56590643,0.0164327486 1.28660819,0.295730994 1.28660819,0.64023392 C1.28660819,0.98473684 1.56590643,1.26403509 1.91040936,1.26403509 L2.53421053,1.26403509 C2.87871345,1.26403509 3.15801169,0.98473684 3.15801169,0.64023392 C3.15801169,0.295730994 2.87871345,0.0164327486 2.53421053,0.0164327486 Z" id="Path"></path>
                    <path d="M4.7174269,1.26397661 L5.34122807,1.26397661 C5.68573099,1.26397661 5.96502926,0.984678363 5.96502926,0.640175438 C5.96502926,0.295672515 5.68573099,0.016374269 5.34122807,0.016374269 L4.7174269,0.016374269 C4.37292398,0.016374269 4.09362573,0.295672515 4.09362573,0.640175438 C4.09362573,0.984678363 4.37292398,1.26397661 4.7174269,1.26397661 Z" id="Path"></path>
                    <path d="M7.52444443,1.26397661 L8.14824563,1.26397661 C8.49274852,1.26397661 8.77204676,0.984678363 8.77204676,0.640175438 C8.77204676,0.295672515 8.49274852,0.016374269 8.14824563,0.016374269 L7.52444443,0.016374269 C7.17994154,0.016374269 6.9006433,0.295672515 6.9006433,0.640175438 C6.9006433,0.984678363 7.17994154,1.26397661 7.52444443,1.26397661 Z" id="Path"></path>
                </g>
                <g id="Group" transform="translate(11.286550, 7.426901)" fill="#828282">
                    <path d="M0.62385965,3.79812865 C0.279356725,3.79812865 5.84795321e-05,3.51883041 5.84795321e-05,3.17432749 L5.84795321e-05,0.679181285 C5.84795321e-05,0.334678362 0.279356725,0.055380117 0.62385965,0.055380117 C0.96836257,0.055380117 1.24766082,0.334678362 1.24766082,0.679181285 L1.24766082,3.17432749 C1.24766082,3.51883041 0.96836257,3.79812865 0.62385965,3.79812865 Z" id="Path"></path>
                    <path d="M6.86169592,3.79812865 C6.51719297,3.79812865 6.23789473,3.51883041 6.23789473,3.17432749 L6.23789473,0.679181285 C6.23789473,0.334678362 6.51719297,0.055380117 6.86169592,0.055380117 C7.20619881,0.055380117 7.48549705,0.334678362 7.48549705,0.679181285 L7.48549705,3.17432749 C7.48549705,3.51883041 7.20619881,3.79812865 6.86169592,3.79812865 Z" id="Path"></path>
                </g>
            </g>
        </g>
    </g>
</svg>