<?xml version="1.0" encoding="UTF-8"?>
<svg width="30px" height="30px" viewBox="0 0 512 512" version="1.1" xmlns="http://www.w3.org/2000/svg" xmlns:xlink="http://www.w3.org/1999/xlink">
    <!-- Generator: Sketch 54.1 (76490) - https://sketchapp.com -->
    <title>Artboard</title>
    <desc>Created with Sketch.</desc>
    <g id="Artboard" stroke="none" stroke-width="1" fill="none" fill-rule="evenodd">
        <g id="spanner" transform="translate(96.000000, 101.000000)" fill="#000000" fill-rule="nonzero">
            <path d="M211.480693,141 C218.122571,136.592636 225.959031,134.715646 233.628249,135.570983 L321,48.6591962 L272.069908,0 L184.686212,86.911787 C185.570203,94.6335833 183.611088,102.521695 179,109.209959 L211.480693,141 Z" id="Path"></path>
            <polygon id="Path" points="57.6702084 248.575299 54.5025541 245.405378 37.9231712 258.814743 10 302.846744 17.1481406 310 61.1845116 282.056845 74.5723335 265.513444 71.3927258 262.295675 127 206.636642 113.181855 193"></polygon>
            <path d="M134.527327,92.9634089 C140.97487,69.9156646 135.127657,44.1550087 117.033714,26.028918 C98.9998046,8.07088392 73.5338112,2.17690346 50.6132166,8.39499282 L89.4305464,47.1920291 L79.2489517,85.1967992 L41.1880375,95.3762196 L2.38271431,56.6031914 C-3.81269002,79.5068873 2.07054277,104.967442 20.0684325,122.973493 C38.9307972,141.843833 66.113734,147.377693 89.8867971,139.647095 L90.1029158,139.863168 L249.778656,299.504809 C256.094127,305.806927 264.378679,309 272.651225,309 C280.935777,309 289.196316,305.806927 295.5358,299.504809 C308.154733,286.912578 308.154733,266.445701 295.5358,253.757438 L134.527327,92.9634089 Z M275.436755,294.078986 C268.641021,294.078986 263.129993,288.545127 263.129993,281.726836 C263.129993,274.884537 268.641021,269.374685 275.436755,269.374685 C282.280516,269.374685 287.815557,274.884537 287.815557,281.726836 C287.827564,288.545127 282.292522,294.078986 275.436755,294.078986 Z" id="Shape"></path>
        </g>
    </g>
</svg>