<svg width="21" height="20" viewBox="0 0 21 20" fill="none" xmlns="http://www.w3.org/2000/svg">
<path d="M17.103 15.4007H6.73476C6.57748 15.4007 6.42519 15.3455 6.30444 15.2447C6.18368 15.1439 6.10213 15.004 6.074 14.8492L3.83236 2.52021C3.80422 2.36546 3.72267 2.2255 3.60192 2.12473C3.48117 2.02395 3.32888 1.96875 3.1716 1.96875H1.65625M17.103 15.4007C16.1757 15.4007 15.424 16.1524 15.424 17.0797C15.424 18.007 16.1757 18.7587 17.103 18.7587C18.0303 18.7587 18.782 18.007 18.782 17.0797C18.782 16.1524 18.0303 15.4007 17.103 15.4007ZM4.34264 5.32673H18.9846C19.083 5.32673 19.1802 5.34834 19.2693 5.39003C19.3584 5.43173 19.4372 5.49248 19.5003 5.56801C19.5633 5.64353 19.609 5.73198 19.6341 5.8271C19.6591 5.92222 19.663 6.02169 19.6454 6.11847L18.5464 12.1628C18.5183 12.3176 18.4368 12.4575 18.316 12.5583C18.1952 12.6591 18.043 12.7143 17.8857 12.7143H5.68583M8.70802 17.0797C8.70802 18.007 7.95631 18.7587 7.02902 18.7587C6.10174 18.7587 5.35003 18.007 5.35003 17.0797C5.35003 16.1524 6.10174 15.4007 7.02902 15.4007C7.95631 15.4007 8.70802 16.1524 8.70802 17.0797Z" stroke="white" stroke-width="2" stroke-linecap="round" stroke-linejoin="round"/>
</svg>
