<svg width="70" height="70" viewBox="0 0 70 70" fill="none" xmlns="http://www.w3.org/2000/svg">
<path d="M50.5848 10.1357L39.1109 21.6097L40.6577 29.3437L48.3916 30.8905L59.8656 19.4165L59.8667 19.4161C61.2869 22.7685 61.6266 26.4803 60.8384 30.0348C60.0503 33.5893 58.1735 36.8096 55.4694 39.2476C52.7653 41.6855 49.3684 43.2197 45.7515 43.6366C42.1346 44.0536 38.4777 43.3324 35.2898 41.5737L35.2902 41.5731L19.9542 59.328C18.7232 60.5575 17.0544 61.2479 15.3145 61.2474C13.5747 61.2469 11.9063 60.5556 10.676 59.3253C9.44577 58.0951 8.7544 56.4266 8.75391 54.6868C8.75341 52.947 9.44383 51.2781 10.6734 50.0472L28.428 34.7113L28.4277 34.7115C26.6689 31.5237 25.9478 27.8668 26.3647 24.2499C26.7816 20.633 28.3158 17.2361 30.7538 14.532C33.1917 11.8278 36.412 9.95109 39.9666 9.16293C43.5211 8.37478 47.2329 8.71444 50.5853 10.1346L50.5848 10.1357Z" stroke="#124193" stroke-width="4" stroke-linecap="round" stroke-linejoin="round"/>
</svg>
